<?xml version="1.0" encoding="UTF-8" standalone="no"?>
<!-- Created with Inkscape (http://www.inkscape.org/) -->

<svg
   xmlns:dc="http://purl.org/dc/elements/1.1/"
   xmlns:cc="http://creativecommons.org/ns#"
   xmlns:rdf="http://www.w3.org/1999/02/22-rdf-syntax-ns#"
   xmlns:svg="http://www.w3.org/2000/svg"
   xmlns="http://www.w3.org/2000/svg"
   xmlns:sodipodi="http://sodipodi.sourceforge.net/DTD/sodipodi-0.dtd"
   xmlns:inkscape="http://www.inkscape.org/namespaces/inkscape"
   width="100mm"
   height="100mm"
   viewBox="0 0 99.999996 99.999996"
   version="1.1"
   id="svg835"
   inkscape:version="0.92.3 (2405546, 2018-03-11)"
   sodipodi:docname="Arithmetic.svg">
  <defs
     id="defs829" />
  <sodipodi:namedview
     id="base"
     pagecolor="#ffffff"
     bordercolor="#666666"
     borderopacity="1.0"
     inkscape:pageopacity="0.0"
     inkscape:pageshadow="2"
     inkscape:zoom="5.6"
     inkscape:cx="19.91972"
     inkscape:cy="69.667118"
     inkscape:document-units="mm"
     inkscape:current-layer="layer1"
     showgrid="false"
     inkscape:pagecheckerboard="true"
     units="mm"
     inkscape:window-width="5120"
     inkscape:window-height="1986"
     inkscape:window-x="0"
     inkscape:window-y="0"
     inkscape:window-maximized="1" />
  <metadata
     id="metadata832">
    <rdf:RDF>
      <cc:Work
         rdf:about="">
        <dc:format>image/svg+xml</dc:format>
        <dc:type
           rdf:resource="http://purl.org/dc/dcmitype/StillImage" />
        <dc:title></dc:title>
      </cc:Work>
    </rdf:RDF>
  </metadata>
  <g
     inkscape:label="Layer 1"
     inkscape:groupmode="layer"
     id="layer1"
     transform="translate(0,-197)">
    <g
       transform="matrix(0.04929062,0,0,-0.04945034,-5.4219687,302.68678)"
       id="g16"
       style="fill:#ffffff;fill-opacity:1;stroke:none">
      <path
         d="m 365,2126 c -90,-29 -162,-83 -207,-157 -47,-76 -48,-90 -48,-839 0,-592 2,-715 15,-763 27,-103 89,-177 190,-224 l 60,-28 h 750 750 l 60,28 c 99,46 160,117 190,219 14,49 15,141 13,784 l -3,729 -28,60 c -36,78 -95,137 -171,172 l -61,28 -735,2 c -574,1 -744,-1 -775,-11 z m 674,-102 31,-6 V 1599 1180 H 651 233 l -5,98 c -3,53 -5,203 -3,332 2,256 8,285 63,343 39,41 79,59 147,67 77,9 563,12 604,4 z m 846,-18 c 52,-22 93,-61 116,-111 17,-36 19,-70 19,-378 v -337 l -417,2 -418,3 -3,417 c -2,390 -1,417 15,422 10,3 160,4 333,2 272,-2 320,-5 355,-20 z M 1070,650 V 230 l -297,-1 c -164,-1 -316,0 -338,1 -83,4 -157,56 -191,135 -14,33 -18,81 -21,265 -2,124 0,273 3,333 l 6,107 h 419 419 z m 952,118 c 1,-167 1,-316 0,-333 -8,-115 -98,-200 -217,-206 -22,-2 -172,-2 -332,-1 l -293,2 v 420 420 h 420 420 z"
         id="path4"
         style="fill:#ffffff;fill-opacity:1"
         inkscape:connector-curvature="0" />
      <path
         d="m 660,1852 c -32,-10 -40,-35 -40,-129 v -93 h -93 c -105,0 -129,-10 -129,-55 0,-45 24,-55 129,-55 h 93 v -95 c 0,-82 3,-98 20,-115 11,-11 27,-20 35,-20 8,0 24,9 35,20 17,17 20,33 20,115 v 95 h 95 c 82,0 98,3 115,20 11,11 20,27 20,35 0,8 -9,24 -20,35 -17,17 -33,20 -115,20 h -95 v 93 c 0,93 -8,119 -40,129 -8,3 -22,3 -30,0 z"
         id="path6"
         style="fill:#ffffff;fill-opacity:1"
         inkscape:connector-curvature="0" />
      <path
         d="m 1310,1610 c -11,-11 -20,-27 -20,-35 0,-8 9,-24 20,-35 19,-19 33,-20 263,-20 265,0 280,3 280,55 0,52 -15,55 -280,55 -230,0 -244,-1 -263,-20 z"
         id="path8"
         style="fill:#ffffff;fill-opacity:1"
         inkscape:connector-curvature="0" />
      <path
         d="m 415,935 c -14,-13 -25,-29 -25,-35 0,-12 95,-116 163,-178 20,-19 37,-38 37,-42 0,-5 -40,-49 -90,-99 -49,-50 -94,-100 -100,-111 -20,-38 31,-91 68,-71 9,5 57,50 107,100 49,50 94,91 98,91 5,0 47,-38 94,-85 105,-107 125,-120 152,-105 11,6 25,20 31,31 15,27 4,43 -104,153 -47,49 -86,90 -86,93 0,3 41,47 92,99 51,52 96,101 100,109 11,18 -6,51 -33,65 -26,14 -44,3 -136,-87 C 661,745 684,749 599,832 510,919 462,960 449,960 c -6,0 -21,-11 -34,-25 z"
         id="path10"
         style="fill:#ffffff;fill-opacity:1"
         inkscape:connector-curvature="0" />
      <path
         d="m 1306,818 c -21,-30 -20,-44 4,-68 19,-19 33,-20 259,-20 132,0 247,3 256,6 27,11 38,53 20,80 l -15,24 h -255 c -251,0 -254,0 -269,-22 z"
         id="path12"
         style="fill:#ffffff;fill-opacity:1"
         inkscape:connector-curvature="0" />
      <path
         d="m 1310,600 c -24,-24 -25,-38 -4,-68 15,-22 18,-22 268,-22 276,0 279,1 279,57 0,50 -16,53 -280,53 -230,0 -244,-1 -263,-20 z"
         id="path14"
         style="fill:#ffffff;fill-opacity:1"
         inkscape:connector-curvature="0" />
    </g>
  </g>
</svg>
