<?xml version="1.0" encoding="UTF-8" standalone="no"?>
<!-- Created with Inkscape (http://www.inkscape.org/) -->

<svg
   xmlns:dc="http://purl.org/dc/elements/1.1/"
   xmlns:cc="http://creativecommons.org/ns#"
   xmlns:rdf="http://www.w3.org/1999/02/22-rdf-syntax-ns#"
   xmlns:svg="http://www.w3.org/2000/svg"
   xmlns="http://www.w3.org/2000/svg"
   xmlns:sodipodi="http://sodipodi.sourceforge.net/DTD/sodipodi-0.dtd"
   xmlns:inkscape="http://www.inkscape.org/namespaces/inkscape"
   width="100mm"
   height="100mm"
   viewBox="0 0 100 100"
   version="1.1"
   id="svg838"
   inkscape:version="0.92.3 (2405546, 2018-03-11)"
   sodipodi:docname="CopyRightToLeft.svg">
  <defs
     id="defs832" />
  <sodipodi:namedview
     id="base"
     pagecolor="#ffffff"
     bordercolor="#666666"
     borderopacity="1.0"
     inkscape:pageopacity="0.0"
     inkscape:pageshadow="2"
     inkscape:zoom="1.979899"
     inkscape:cx="292.37006"
     inkscape:cy="33.409344"
     inkscape:document-units="mm"
     inkscape:current-layer="layer1"
     showgrid="false"
     inkscape:pagecheckerboard="true"
     inkscape:window-width="5120"
     inkscape:window-height="1986"
     inkscape:window-x="0"
     inkscape:window-y="0"
     inkscape:window-maximized="1" />
  <metadata
     id="metadata835">
    <rdf:RDF>
      <cc:Work
         rdf:about="">
        <dc:format>image/svg+xml</dc:format>
        <dc:type
           rdf:resource="http://purl.org/dc/dcmitype/StillImage" />
        <dc:title />
      </cc:Work>
    </rdf:RDF>
  </metadata>
  <g
     inkscape:label="Layer 1"
     inkscape:groupmode="layer"
     id="layer1"
     transform="translate(0,-197)">
    <path
       style="fill:#ffffff;fill-opacity:1;stroke:none;stroke-width:0.04531561"
       id="path4"
       d="m 95.21372,296.36096 c 1.93655,-0.80166 4.28808,-3.51839 4.61084,-5.25531 0.13832,-0.80166 0.23054,-14.91973 0.13832,-31.39824 l -0.13832,-29.884 -1.42936,-1.73692 c -2.44374,-2.93941 -2.81261,-3.02849 -15.53851,-3.1621 l -11.38876,-0.13361 v -11.00051 c 0,-12.33662 -0.27665,-13.67271 -3.27369,-15.72139 L 66.62655,197 H 35.73396 4.8413798 l -1.52158,1.02434 c -0.82995,0.57898 -1.89044,1.826 -2.39763004,2.76127 -0.87606,1.69238 -0.92217000215291,2.71672 -0.92217000215291,31.93267 v 30.19576 L 1.0604898,264.56189 c 0.5533,0.89073 1.61379,2.09321 2.39764,2.67219 1.33714,1.02434 1.61379,1.02434 13.2330902,1.15795 l 11.89595,0.13361 v 10.77783 c 0,5.92336 0.23054,11.49042 0.46108,12.33662 0.5072,1.82599 2.81261,4.18643 4.74916,4.85448 2.07488,0.75712 59.61809,0.62351 61.41631,-0.13361 z m -60.54025,-16.61212 -0.0922,-11.2232 15.9996,-0.13361 16.0457,-0.13361 1.56768,-1.06888 c 2.81261,-1.9596 3.27369,-3.65199 3.27369,-12.73744 v -7.97203 l 1.89045,1.73692 c 2.35152,2.27136 6.73181,8.4174 8.89891,12.55929 1.84433,3.60746 3.08925,4.36458 5.11802,3.07302 1.42936,-0.89073 1.52158,-2.8058 0.41498,-8.32832 -1.84434,-9.35267 -5.90187,-17.681 -11.43487,-23.47074 l -1.38325,-1.42517 h 9.26777 c 8.02286,0 9.31389,0.0891 9.54443,0.71258 0.36887,0.9798 0.36887,59.18902 -0.0461,59.54532 -0.13832,0.17814 -13.50974,0.26721 -29.60155,0.22268 l -29.3249,-0.13361 z M 6.8701398,262.69135 c -0.82995,-0.44536 -0.87606,-1.24702 -0.87606,-30.06214 0,-28.81512 0.0461,-29.61678 0.87606,-30.06214 1.24493,-0.62351 56.4827202,-0.62351 57.7276402,0 0.82995,0.44536 0.87606,1.06887 0.87606,11.13412 0,5.87882 -0.18443,10.68877 -0.41497,10.68877 -0.23054,0 -1.19882,-0.31176 -2.12099,-0.71259 -2.8126,-1.11341 -8.2995,-1.9596 -12.95644,-1.9596 h -4.33418 v -4.54273 c 0,-5.07716 -0.50719,-6.14604 -2.85872,-6.14604 -1.01438,0 -1.93655,0.57898 -3.59645,2.13776 -4.14975,3.91921 -13.8325,13.89539 -14.57024,15.0088 -0.82995,1.24702 -0.64551,2.71673 0.59941,4.00829 0.46109,0.4899 4.14975,4.54272 8.16118,8.99637 4.01142,4.45365 7.70009,8.23925 8.20728,8.4174 1.42936,0.44537 2.95094,-0.13361 3.50424,-1.38063 0.32276,-0.62351 0.5533,-3.11756 0.5533,-5.52253 0,-4.18643 0.0461,-4.40911 1.01438,-4.67633 3.27369,-0.8462 10.65103,0.35629 15.67684,2.49404 l 3.13536,1.38063 v 10.15433 c 0,9.21906 -0.0922,10.19886 -0.82995,10.59969 -1.1066,0.62351 -56.5288202,0.66805 -57.7737502,0.0445 z"
       inkscape:connector-curvature="0"
       sodipodi:nodetypes="cccccccsccccccscccccsccccccccscccccccsccccccsccsscscsscccsccscccsccc" />
  </g>
</svg>
