<?xml version="1.0" encoding="UTF-8" standalone="no"?>
<!-- Created with Inkscape (http://www.inkscape.org/) -->

<svg
   xmlns:dc="http://purl.org/dc/elements/1.1/"
   xmlns:cc="http://creativecommons.org/ns#"
   xmlns:rdf="http://www.w3.org/1999/02/22-rdf-syntax-ns#"
   xmlns:svg="http://www.w3.org/2000/svg"
   xmlns="http://www.w3.org/2000/svg"
   xmlns:sodipodi="http://sodipodi.sourceforge.net/DTD/sodipodi-0.dtd"
   xmlns:inkscape="http://www.inkscape.org/namespaces/inkscape"
   width="100mm"
   height="100mm"
   viewBox="0 0 100 100"
   version="1.1"
   id="svg838"
   inkscape:version="0.92.3 (2405546, 2018-03-11)"
   sodipodi:docname="Copy.svg">
  <defs
     id="defs832" />
  <sodipodi:namedview
     id="base"
     pagecolor="#ffffff"
     bordercolor="#666666"
     borderopacity="1.0"
     inkscape:pageopacity="0.0"
     inkscape:pageshadow="2"
     inkscape:zoom="15.839192"
     inkscape:cx="140.13618"
     inkscape:cy="127.23484"
     inkscape:document-units="mm"
     inkscape:current-layer="layer1"
     showgrid="false"
     inkscape:pagecheckerboard="true"
     inkscape:window-width="5120"
     inkscape:window-height="1986"
     inkscape:window-x="0"
     inkscape:window-y="0"
     inkscape:window-maximized="1" />
  <metadata
     id="metadata835">
    <rdf:RDF>
      <cc:Work
         rdf:about="">
        <dc:format>image/svg+xml</dc:format>
        <dc:type
           rdf:resource="http://purl.org/dc/dcmitype/StillImage" />
        <dc:title />
      </cc:Work>
    </rdf:RDF>
  </metadata>
  <g
     inkscape:label="Layer 1"
     inkscape:groupmode="layer"
     id="layer1"
     transform="translate(0,-197)">
    <path
       style="fill:#ffffff;fill-opacity:1;stroke:none;stroke-width:0.04531561"
       id="path4"
       d="m 4.7862791,197.63904 c -1.9365503,0.80166 -4.28807565,3.51839 -4.61083403,5.25531 -0.13832502,0.80166 -0.2305417,14.91973 -0.13832502,31.39824 l 0.13832502,29.884 1.42935853,1.73692 c 2.443742,2.93941 2.8126087,3.02849 15.5385104,3.1621 l 11.38876,0.13361 v 11.00051 c 0,12.33662 0.27665,13.67271 3.273692,15.72139 L 33.37345,297 h 30.892588 30.892587 l 1.521576,-1.02434 c 0.82995,-0.57898 1.890442,-1.826 2.397633,-2.76127 C 99.953893,291.52201 100,290.49767 100,261.28172 v -30.19576 l -1.060491,-1.64785 c -0.5533,-0.89073 -1.613792,-2.09321 -2.397633,-2.67219 -1.337142,-1.02434 -1.613792,-1.02434 -13.233094,-1.15795 L 71.41283,225.47436 v -10.77783 c 0,-5.92336 -0.230541,-11.49042 -0.461083,-12.33662 -0.507192,-1.82599 -2.812609,-4.18643 -4.749159,-4.85448 -2.074875,-0.75712 -59.6180837,-0.62351 -61.4163089,0.13361 z m 60.5402499,16.61212 0.09222,11.2232 -15.999594,0.13361 -16.045702,0.13361 -1.567684,1.06888 c -2.812608,1.9596 -3.273692,3.65199 -3.273692,12.73744 v 7.97203 l -1.890442,-1.73692 c -2.351525,-2.27136 -6.731817,-8.4174 -8.898909,-12.55929 -1.844334,-3.60746 -3.089259,-4.36458 -5.118026,-3.07302 -1.429359,0.89073 -1.521575,2.8058 -0.414975,8.32832 1.844333,9.35267 5.901867,17.681 11.434868,23.47074 l 1.38325,1.42517 h -9.267776 c -8.0228512,0 -9.3138847,-0.0891 -9.5444264,-0.71258 -0.3688667,-0.9798 -0.3688667,-59.18902 0.046108,-59.54532 C 6.400071,202.93889 19.77149,202.84982 35.8633,202.89435 l 29.324904,0.13361 z m 27.80333,17.05749 c 0.82995,0.44536 0.876058,1.24702 0.876058,30.06214 0,28.81512 -0.04611,29.61678 -0.876058,30.06214 -1.244926,0.62351 -56.482717,0.62351 -57.727642,0 -0.82995,-0.44536 -0.876059,-1.06887 -0.876059,-11.13412 0,-5.87882 0.184434,-10.68877 0.414975,-10.68877 0.230542,0 1.198817,0.31176 2.120984,0.71259 2.812609,1.11341 8.299501,1.9596 12.956444,1.9596 h 4.334184 v 4.54273 c 0,5.07716 0.507191,6.14604 2.858717,6.14604 1.014383,0 1.93655,-0.57898 3.59645,-2.13776 4.149751,-3.91921 13.832502,-13.89539 14.570236,-15.0088 0.82995,-1.24702 0.645516,-2.71673 -0.599409,-4.00829 -0.461083,-0.4899 -4.14975,-4.54272 -8.161176,-8.99637 -4.011426,-4.45365 -7.700093,-8.23925 -8.207285,-8.4174 -1.429358,-0.44537 -2.950933,0.13361 -3.504233,1.38063 -0.322759,0.62351 -0.5533,3.11756 -0.5533,5.52253 0,4.18643 -0.04611,4.40911 -1.014384,4.67633 -3.273692,0.8462 -10.651026,-0.35629 -15.676836,-2.49404 l -3.135367,-1.38063 v -10.15433 c 0,-9.21906 0.09222,-10.19886 0.82995,-10.59969 1.106601,-0.62351 56.528825,-0.66805 57.773751,-0.0445 z"
       inkscape:connector-curvature="0"
       sodipodi:nodetypes="cccccccsccccccscccccsccccccccscccccccsccccccsccsscscsscccsccscccsccc" />
  </g>
</svg>
