<?xml version="1.0" encoding="UTF-8" standalone="no"?>
<!-- Created with Inkscape (http://www.inkscape.org/) -->

<svg
   xmlns:dc="http://purl.org/dc/elements/1.1/"
   xmlns:cc="http://creativecommons.org/ns#"
   xmlns:rdf="http://www.w3.org/1999/02/22-rdf-syntax-ns#"
   xmlns:svg="http://www.w3.org/2000/svg"
   xmlns="http://www.w3.org/2000/svg"
   xmlns:sodipodi="http://sodipodi.sourceforge.net/DTD/sodipodi-0.dtd"
   xmlns:inkscape="http://www.inkscape.org/namespaces/inkscape"
   width="100mm"
   height="100mm"
   viewBox="0 0 100 100"
   version="1.1"
   id="svg838"
   inkscape:version="0.92.3 (2405546, 2018-03-11)"
   sodipodi:docname="GetPixel.svg">
  <defs
     id="defs832" />
  <sodipodi:namedview
     id="base"
     pagecolor="#ffffff"
     bordercolor="#666666"
     borderopacity="1.0"
     inkscape:pageopacity="0.0"
     inkscape:pageshadow="2"
     inkscape:zoom="1.979899"
     inkscape:cx="-430.64801"
     inkscape:cy="159.73895"
     inkscape:document-units="mm"
     inkscape:current-layer="layer1"
     showgrid="false"
     inkscape:pagecheckerboard="true"
     inkscape:window-width="5120"
     inkscape:window-height="1986"
     inkscape:window-x="0"
     inkscape:window-y="0"
     inkscape:window-maximized="1" />
  <metadata
     id="metadata835">
    <rdf:RDF>
      <cc:Work
         rdf:about="">
        <dc:format>image/svg+xml</dc:format>
        <dc:type
           rdf:resource="http://purl.org/dc/dcmitype/StillImage" />
        <dc:title />
      </cc:Work>
    </rdf:RDF>
  </metadata>
  <g
     inkscape:label="Layer 1"
     inkscape:groupmode="layer"
     id="layer1"
     transform="translate(0,-197)">
    <path
       style="fill:#ffffff;fill-opacity:1;stroke:none;stroke-width:0.03476624"
       id="path4"
       d="m 71.470706,217.71194 c -1.375056,0.66806 -3.197006,2.25027 -6.703401,5.80148 l -4.812698,4.88731 -1.340679,-0.45709 c -1.82195,-0.63289 -2.337597,-0.42192 -4.743945,1.82836 -3.334513,3.16444 -3.781406,4.7115 -1.856327,6.575 l 1.203174,1.12514 -12.891153,13.15002 c -7.081544,7.24307 -13.338049,13.85324 -13.888073,14.6971 -0.550021,0.80868 -1.271926,2.32058 -1.581314,3.34024 -0.309388,0.98449 -1.168799,2.74252 -1.890702,3.93798 -1.478186,2.35575 -1.684446,3.83249 -0.756281,5.41471 1.306302,2.28543 3.678276,2.4964 6.359635,0.59773 0.996916,-0.70322 2.750113,-1.58222 3.918911,-1.93383 1.168799,-0.3516 2.78449,-1.1603 3.609524,-1.72286 0.825033,-0.59773 7.322175,-6.92662 14.403717,-14.0642 l 12.891155,-13.00939 1.065668,1.19546 c 1.718823,1.86351 2.78449,1.65254 5.706486,-1.23061 2.990748,-2.88317 3.506394,-3.97315 2.818865,-5.66085 l -0.481269,-1.19545 4.743944,-4.95763 c 2.61261,-2.74254 5.053334,-5.59052 5.431474,-6.36405 1.409433,-3.0238 0.714414,-6.25552 -1.966943,-8.99802 -2.818868,-2.88318 -6.042761,-4.50361 -9.239768,-2.95655 z m -13.406801,25.31556 2.921995,2.98863 -12.375508,12.69295 c -6.80653,6.96178 -12.492867,13.44467 -13.317902,14.00722 -0.790657,0.59772 -2.727673,0.91293 -3.904682,1.42823 -1.065668,0.38676 -2.715737,1.19547 -3.643899,1.75802 -2.853243,1.7932 -3.884536,0.84387 -1.993832,-1.79317 0.584399,-0.84386 1.306303,-2.39091 1.615691,-3.44573 0.377012,-1.08998 0.673851,-3.26095 0.948862,-3.82352 0.568699,-0.9047 26.208753,-26.78609 26.655397,-26.80127 0.154649,-0.004 1.579537,1.28874 3.093878,2.98864 z"
       inkscape:connector-curvature="0"
       sodipodi:nodetypes="cccccccccccccscccccccccsccccccccccsc" />
    <path
       style="fill:#ffffff;fill-opacity:1;stroke:none;stroke-width:0.04446437"
       id="path4-3"
       d="m 39.764324,198.09949 c -7.963275,1.82209 -13.657688,4.44412 -19.663508,8.88824 -17.7505397,13.33235 -24.6461097,36.39733 -17.0387397,57.1958 8.1412297,22.26503 31.8086157,36.13068 54.8086887,32.13097 11.032918,-1.95541 20.063894,-6.66617 27.804731,-14.53226 5.471973,-5.64403 8.897515,-10.97698 11.388818,-17.99868 9.253416,-25.73144 -4.092855,-54.21824 -29.851159,-63.63977 -8.942002,-3.28865 -18.907218,-4.04415 -27.448831,-2.0443 z m 19.352094,3.5553 c 18.862728,3.95526 33.410165,19.28747 36.479808,38.5305 0.756287,4.75521 0.355899,13.3768 -0.800778,17.9098 -5.694407,21.73173 -25.002013,36.17512 -47.023361,35.19741 -12.011644,-0.53329 -22.332761,-5.02185 -30.740911,-13.42123 -16.14898971,-16.08771 -18.3288797,-41.01921 -5.16056,-59.55119 7.42943,-10.44367 19.174145,-17.55426 31.89759,-19.28747 3.82593,-0.53329 11.299843,-0.2222 15.348212,0.62218 z"
       inkscape:connector-curvature="0" />
  </g>
</svg>
