<?xml version="1.0" encoding="UTF-8" standalone="no"?>
<!-- Created with Inkscape (http://www.inkscape.org/) -->

<svg
   xmlns:dc="http://purl.org/dc/elements/1.1/"
   xmlns:cc="http://creativecommons.org/ns#"
   xmlns:rdf="http://www.w3.org/1999/02/22-rdf-syntax-ns#"
   xmlns:svg="http://www.w3.org/2000/svg"
   xmlns="http://www.w3.org/2000/svg"
   xmlns:sodipodi="http://sodipodi.sourceforge.net/DTD/sodipodi-0.dtd"
   xmlns:inkscape="http://www.inkscape.org/namespaces/inkscape"
   width="100mm"
   height="100mm"
   viewBox="0 0 100 100"
   version="1.1"
   id="svg838"
   inkscape:version="0.92.3 (2405546, 2018-03-11)"
   sodipodi:docname="Invert.svg">
  <defs
     id="defs832" />
  <sodipodi:namedview
     id="base"
     pagecolor="#ffffff"
     bordercolor="#666666"
     borderopacity="1.0"
     inkscape:pageopacity="0.0"
     inkscape:pageshadow="2"
     inkscape:zoom="0.35"
     inkscape:cx="-260"
     inkscape:cy="560"
     inkscape:document-units="mm"
     inkscape:current-layer="layer1"
     showgrid="false"
     inkscape:pagecheckerboard="true"
     inkscape:window-width="5120"
     inkscape:window-height="1986"
     inkscape:window-x="0"
     inkscape:window-y="0"
     inkscape:window-maximized="1" />
  <metadata
     id="metadata835">
    <rdf:RDF>
      <cc:Work
         rdf:about="">
        <dc:format>image/svg+xml</dc:format>
        <dc:type
           rdf:resource="http://purl.org/dc/dcmitype/StillImage" />
        <dc:title></dc:title>
      </cc:Work>
    </rdf:RDF>
  </metadata>
  <g
     inkscape:label="Layer 1"
     inkscape:groupmode="layer"
     id="layer1"
     transform="translate(0,-197)">
    <g
       style="fill:#ffffff;stroke:none;fill-opacity:1"
       transform="matrix(0.05926922,0,0,-0.0593157,-16.677868,313.68499)"
       id="g6">
      <path
         inkscape:connector-curvature="0"
         d="m 401,1957 c -47,-15 -98,-69 -111,-116 -7,-27 -10,-267 -8,-738 l 3,-698 23,-37 c 13,-21 40,-48 60,-60 l 37,-23 695,-3 c 506,-2 706,0 737,9 54,15 109,68 123,119 7,26 10,268 8,738 l -3,699 -28,41 c -57,81 -13,77 -802,79 -485,1 -710,-2 -734,-10 z M 1780,1120 V 470 h -650 c -357,0 -650,4 -650,8 0,4 85,93 190,196 l 189,188 43,-36 c 27,-24 67,-44 111,-58 286,-87 556,183 469,468 -21,67 -71,144 -95,144 -7,0 -128,-116 -270,-257 L 859,865 824,905 c -22,25 -42,64 -56,108 -55,182 34,373 210,455 47,22 71,26 142,27 102,0 170,-21 227,-70 l 41,-35 188,190 c 103,105 192,190 196,190 4,0 8,-292 8,-650 z"
         id="path4"
         style="fill:#ffffff;fill-opacity:1" />
    </g>
  </g>
</svg>
